<svg xmlns="http://www.w3.org/2000/svg" width="6.375" height="9.221" viewBox="0 0 6.375 9.221">
    <g data-name="그룹 170529">
        <path data-name="선 128" d="M2.444 5.6H-1V0h3.444z" transform="rotate(180 1.955 2.799)" style="fill:#139df2"/>
        <path data-name="패스 89448" d="M12.519 7.554a.366.366 0 0 0 .356-.375.39.39 0 0 0-.076-.23l-1.33-1.788-1.505-2.017a.345.345 0 0 0-.5-.065.372.372 0 0 0-.061.065L7.906 5.16l-1.33 1.787a.387.387 0 0 0 .061.526.345.345 0 0 0 .22.08" transform="rotate(180 6.438 6.11)" style="fill:#139df2"/>
    </g>
</svg>
