<svg xmlns="http://www.w3.org/2000/svg" xmlns:xlink="http://www.w3.org/1999/xlink" width="20" height="20" viewBox="0 0 20 20">
  <defs>
    <clipPath id="clip-path">
      <rect id="사각형_36803" data-name="사각형 36803" width="20" height="20" fill="#fff"/>
    </clipPath>
  </defs>
  <g id="map_analysis" transform="translate(-3983 14444)">
    <g id="그룹_166676" data-name="그룹 166676" transform="translate(3944 -14449)">
      <g id="그룹_166554" data-name="그룹 166554" transform="translate(39 5)" clip-path="url(#clip-path)">
        <path id="사각형_36800" data-name="사각형 36800" d="M1-.5H2.333A1.5,1.5,0,0,1,3.833,1V7.333a1.5,1.5,0,0,1-1.5,1.5H1a1.5,1.5,0,0,1-1.5-1.5V1A1.5,1.5,0,0,1,1-.5ZM2.333,7.833a.5.5,0,0,0,.5-.5V1a.5.5,0,0,0-.5-.5H1A.5.5,0,0,0,.5,1V7.333a.5.5,0,0,0,.5.5Z" transform="translate(3.5 9.17)" fill="#fff"/>
        <path id="사각형_36801" data-name="사각형 36801" d="M1-.5H2.333A1.5,1.5,0,0,1,3.833,1V13.167a1.5,1.5,0,0,1-1.5,1.5H1a1.5,1.5,0,0,1-1.5-1.5V1A1.5,1.5,0,0,1,1-.5ZM2.333,13.667a.5.5,0,0,0,.5-.5V1a.5.5,0,0,0-.5-.5H1A.5.5,0,0,0,.5,1V13.167a.5.5,0,0,0,.5.5Z" transform="translate(8.499 3.336)" fill="#fff"/>
        <path id="사각형_36802" data-name="사각형 36802" d="M1-.5H2.333A1.5,1.5,0,0,1,3.833,1V4a1.5,1.5,0,0,1-1.5,1.5H1A1.5,1.5,0,0,1-.5,4V1A1.5,1.5,0,0,1,1-.5Zm1.333,5a.5.5,0,0,0,.5-.5V1a.5.5,0,0,0-.5-.5H1A.5.5,0,0,0,.5,1V4a.5.5,0,0,0,.5.5Z" transform="translate(13.487 12.503)" fill="#fff"/>
      </g>
    </g>
  </g>
</svg>
