<svg xmlns="http://www.w3.org/2000/svg" xmlns:xlink="http://www.w3.org/1999/xlink" width="20" height="20" viewBox="0 0 20 20">
  <defs>
    <clipPath id="clip-path">
      <rect id="사각형_36806" data-name="사각형 36806" width="20" height="20" fill="#fff"/>
    </clipPath>
  </defs>
  <g id="map__satellite" data-name="map_ satellite" transform="translate(-3983 14542)">
    <g id="그룹_166674" data-name="그룹 166674" transform="translate(3983 -14542)">
      <g id="그룹_166564" data-name="그룹 166564" clip-path="url(#clip-path)">
        <path id="패스_86683" data-name="패스 86683" d="M10.822,14.636a1.242,1.242,0,0,1-.884-.366L7.565,11.9a1.251,1.251,0,0,1,0-1.768l5.11-5.111a1.253,1.253,0,0,1,1.768,0l2.374,2.375a1.248,1.248,0,0,1,0,1.767L11.706,14.27a1.237,1.237,0,0,1-.883.366Zm2.737-9.152a.419.419,0,0,0-.3.122l-5.11,5.111a.415.415,0,0,0,0,.589l2.373,2.375a.413.413,0,0,0,.3.122h0a.409.409,0,0,0,.293-.122L16.228,8.57a.415.415,0,0,0,0-.589L13.854,5.606a.419.419,0,0,0-.3-.122" transform="translate(-1.2 -0.775)" fill="#fff"/>
        <path id="패스_86684" data-name="패스 86684" d="M16.179,17.968a.979.979,0,0,1-.7-.282l-1.763-1.763a.417.417,0,0,1,.589-.589L16.069,17.1c.032.032.12.028.11.038a.4.4,0,0,0,.271-.127L19.1,14.357a.407.407,0,0,0,.127-.272.152.152,0,0,0-.038-.109l-1.764-1.764a.417.417,0,0,1,.589-.589l1.763,1.763a.98.98,0,0,1,.283.7,1.235,1.235,0,0,1-.371.862L17.04,17.6a1.236,1.236,0,0,1-.861.371" transform="translate(-2.266 -1.917)" fill="#fff"/>
        <path id="패스_86685" data-name="패스 86685" d="M6.934,8.969a.419.419,0,0,1-.3-.122L4.876,7.083a.972.972,0,0,1-.282-.7,1.235,1.235,0,0,1,.372-.863L7.616,2.871a1.112,1.112,0,0,1,1.56-.09l1.764,1.764a.417.417,0,0,1-.589.589L8.587,3.37c-.069-.067-.246-.046-.382.09L5.555,6.111a.407.407,0,0,0-.128.273.154.154,0,0,0,.037.108L7.229,8.257a.417.417,0,0,1-.3.712" transform="translate(-0.766 -0.417)" fill="#fff"/>
        <path id="패스_86686" data-name="패스 86686" d="M7.8,15.021a3.53,3.53,0,0,0-4.676-.072.825.825,0,0,0-.313.6.785.785,0,0,0,.223.6l1.525,1.524-.306.306a.417.417,0,1,0,.589.589l.306-.306,1.524,1.524a.779.779,0,0,0,.552.226l.048,0a.825.825,0,0,0,.6-.312A3.532,3.532,0,0,0,7.8,15.021M7.259,19.2l-1.79-1.776a.359.359,0,0,0-.029-.043.32.32,0,0,0-.045-.029L3.636,15.6a3.043,3.043,0,0,1,1.87-.669,2.376,2.376,0,0,1,1.7.676A2.771,2.771,0,0,1,7.259,19.2" transform="translate(-0.468 -2.35)" fill="#fff"/>
      </g>
    </g>
  </g>
</svg>
