<svg xmlns="http://www.w3.org/2000/svg" xmlns:xlink="http://www.w3.org/1999/xlink" width="20" height="20" viewBox="0 0 20 20">
  <defs>
    <clipPath id="clip-path">
      <rect id="사각형_36804" data-name="사각형 36804" width="20" height="20" fill="#fff"/>
    </clipPath>
  </defs>
  <g id="map_geography" transform="translate(-3983 14493)" opacity="0.4">
    <g id="그룹_166675" data-name="그룹 166675" transform="translate(3983 -14493)">
      <g id="그룹_166556" data-name="그룹 166556" clip-path="url(#clip-path)">
        <path id="패스_86680" data-name="패스 86680" d="M8.19,4.843h0L9.1,6.8a3.19,3.19,0,0,1-.83.11A3.49,3.49,0,0,1,7.41,6.8l.773-1.958H8.19m0-.833a.825.825,0,0,0-.777.527L6.471,6.911a.421.421,0,0,0,.249.549,4.488,4.488,0,0,0,1.548.287,4.068,4.068,0,0,0,1.576-.319.416.416,0,0,0,.2-.558l-1.1-2.376A.822.822,0,0,0,8.19,4.01" transform="translate(-1.074 -0.668)" fill="#fff"/>
        <path id="패스_86681" data-name="패스 86681" d="M17.183,11.376l2.863,6.214h-2.5A2.506,2.506,0,0,0,17.31,16.5l-1.16-2.505,1.027-2.613h.006m0-.833a.823.823,0,0,0-.776.527l-1.1,2.781a.416.416,0,0,0,.01.328l1.234,2.666a1.681,1.681,0,0,1,.118,1.067.4.4,0,0,0,.379.511h2.995a.834.834,0,0,0,.757-1.182l-2.863-6.213a.819.819,0,0,0-.756-.485" transform="translate(-2.547 -1.757)" fill="#fff"/>
        <path id="패스_86682" data-name="패스 86682" d="M9.42,9.927l3.408,7.36a.046.046,0,0,1,0,.043l-9.982,0a.038.038,0,0,1-.008-.045L5.748,9.954a6.086,6.086,0,0,0,1.829.292A5.547,5.547,0,0,0,9.42,9.927m.214-.944a.446.446,0,0,0-.178.037,4.755,4.755,0,0,1-1.879.392A5.372,5.372,0,0,1,5.685,9.05a.42.42,0,0,0-.152-.028.468.468,0,0,0-.43.3L2.062,16.981a.857.857,0,0,0,.775,1.183h9.991a.858.858,0,0,0,.756-1.228L10.01,9.218a.409.409,0,0,0-.376-.235" transform="translate(-0.333 -1.497)" fill="#fff"/>
      </g>
    </g>
  </g>
</svg>
