<svg id="그룹_174680" data-name="그룹 174680" xmlns="http://www.w3.org/2000/svg" xmlns:xlink="http://www.w3.org/1999/xlink" width="24" height="24" viewBox="0 0 24 24">
  <defs>
    <clipPath id="clip-path">
      <rect id="사각형_39462" data-name="사각형 39462" width="24" height="24" fill="rgba(245,245,245,0.4)" stroke="rgba(0,0,0,0)" stroke-width="1"/>
    </clipPath>
  </defs>
  <g id="그룹_174636" data-name="그룹 174636" clip-path="url(#clip-path)">
    <path id="패스_91031" data-name="패스 91031" d="M18.5,15H17V9h1.5a.5.5,0,0,0,0-1H17V5a1,1,0,0,0-1-1H8A1,1,0,0,0,7,5V8H5.5a.5.5,0,0,0,0,1H7v6H5.5a.5.5,0,0,0,0,1H7v3a1,1,0,0,0,1,1h8a1,1,0,0,0,1-1V16h1.5a.5.5,0,0,0,0-1M12,17.5a2,2,0,1,1,2-2,2,2,0,0,1-2,2m0-7a2,2,0,1,1,2-2,2,2,0,0,1-2,2" fill="rgba(245,245,245,0.4)" stroke="rgba(0,0,0,0)" stroke-width="1"/>
  </g>
</svg>
