<svg xmlns="http://www.w3.org/2000/svg" xmlns:xlink="http://www.w3.org/1999/xlink" width="24" height="24" viewBox="0 0 24 24">
  <defs>
    <clipPath id="clip-path">
      <rect id="사각형_39464" data-name="사각형 39464" width="24" height="24" transform="translate(-1 -1)" fill="rgba(255,255,255,0.4)"/>
    </clipPath>
  </defs>
  <g id="그룹_174681" data-name="그룹 174681" transform="translate(1 1)">
    <g id="그룹_174640" data-name="그룹 174640" clip-path="url(#clip-path)">
      <path id="패스_91034" data-name="패스 91034" d="M16.33,9.259l-1.85-3.345a1.6,1.6,0,0,0-1.8-.713L4.19,7.532a1.6,1.6,0,0,0-1.18,1.53l.115,3.82A1.6,1.6,0,0,0,2.4,14.676L3.25,17.77a1.6,1.6,0,0,0,1.138,1.12l.271.988a.8.8,0,0,0,.985.561l.774-.212a.8.8,0,0,0,.562-.986l-.213-.773,9.282-2.547.212.774a.8.8,0,0,0,.986.561l.773-.212a.8.8,0,0,0,.562-.986l-.271-.987a1.6,1.6,0,0,0,.408-1.545l-.849-3.094a1.6,1.6,0,0,0-1.54-1.172M5.224,8.911l7.276-2a.8.8,0,0,1,.914.385l1.293,2.337L4.715,12.377,4.635,9.709a.8.8,0,0,1,.589-.8m.52,7.343a1.2,1.2,0,1,1,.842-1.479,1.2,1.2,0,0,1-.842,1.479M15.8,13.495a1.2,1.2,0,1,1,.841-1.479,1.2,1.2,0,0,1-.841,1.479" transform="translate(-0.195 -0.429)" fill="rgba(255,255,255,0.4)"/>
      <path id="패스_91035" data-name="패스 91035" d="M16.27,4.858l.414-2.721,1.153,1.775,3.371-1.775L19.582,5.3l1.626.857-1.774.947,1.774,2.365L18.517,8.4Z" transform="translate(-1.356 -0.178)" fill="rgba(255,255,255,0.4)"/>
    </g>
  </g>
</svg>
