<svg xmlns="http://www.w3.org/2000/svg" xmlns:xlink="http://www.w3.org/1999/xlink" width="24" height="24" viewBox="0 0 24 24">
  <defs>
    <clipPath id="clip-path">
      <rect id="사각형_36782" data-name="사각형 36782" width="24" height="24" transform="translate(-1.646 -1.646)" fill="rgba(245,245,245,0.4)" stroke="rgba(0,0,0,0)" stroke-width="1"/>
    </clipPath>
  </defs>
  <g id="그룹_174688" data-name="그룹 174688" transform="translate(1.646 1.646)">
    <g id="그룹_166484" data-name="그룹 166484" clip-path="url(#clip-path)">
      <path id="패스_86628" data-name="패스 86628" d="M17.157,7.489,14.7,5.03a1.3,1.3,0,0,0-1.83,0L7.577,10.321a1.3,1.3,0,0,0,0,1.831l2.458,2.458a1.286,1.286,0,0,0,.915.379h0a1.281,1.281,0,0,0,.914-.379l5.292-5.292a1.3,1.3,0,0,0,0-1.83" transform="translate(-0.988 -0.638)" fill="rgba(245,245,245,0.4)" stroke="rgba(0,0,0,0)" stroke-width="1"/>
      <path id="패스_86629" data-name="패스 86629" d="M16.285,18.236h0a.945.945,0,0,1-.677-.272l-1.692-1.692a.431.431,0,0,1,.61-.61l1.693,1.693a.409.409,0,0,0,.361-.126l2.746-2.745c.152-.151.162-.326.126-.362L17.758,12.43a.431.431,0,1,1,.61-.61l1.693,1.692a1.133,1.133,0,0,1-.125,1.582L17.189,17.84a1.3,1.3,0,0,1-.9.4" transform="translate(-1.892 -1.604)" fill="rgba(245,245,245,0.4)" stroke="rgba(0,0,0,0)" stroke-width="1"/>
      <path id="패스_86630" data-name="패스 86630" d="M6.806,8.986A.433.433,0,0,1,6.5,8.86L4.81,7.167a.947.947,0,0,1-.272-.676,1.3,1.3,0,0,1,.4-.906L7.68,2.839a1.3,1.3,0,0,1,.905-.4.823.823,0,0,1,.678.272l1.692,1.692a.431.431,0,1,1-.61.61L8.653,3.324a.4.4,0,0,0-.362.125L5.545,6.195a.447.447,0,0,0-.144.3L7.112,8.249a.431.431,0,0,1-.305.737" transform="translate(-0.623 -0.335)" fill="rgba(245,245,245,0.4)" stroke="rgba(0,0,0,0)" stroke-width="1"/>
      <path id="패스_86631" data-name="패스 86631" d="M7.736,15.427a3.22,3.22,0,0,0-4.27-.041.407.407,0,0,0-.053.6l1.578,1.578-.621.621a.431.431,0,1,0,.61.61l.621-.621,1.578,1.578a.407.407,0,0,0,.6-.053,3.22,3.22,0,0,0-.041-4.27" transform="translate(-0.454 -2.003)" fill="rgba(245,245,245,0.4)" stroke="rgba(0,0,0,0)" stroke-width="1"/>
    </g>
  </g>
</svg>
