<svg xmlns="http://www.w3.org/2000/svg" xmlns:xlink="http://www.w3.org/1999/xlink" width="32" height="32" viewBox="0 0 32 32">
  <defs>
    <clipPath id="clip-path">
      <rect id="사각형_37077" data-name="사각형 37077" width="24" height="24" fill="none"/>
    </clipPath>
  </defs>
  <g id="edge_box_eroor" transform="translate(-186 -661)">
    <g id="error" transform="translate(186 661)">
      <g id="타원_3682" data-name="타원 3682" transform="translate(32 32) rotate(180)" fill="#db0000" stroke="rgba(0,0,0,0.3)" stroke-miterlimit="10" stroke-width="1">
        <circle cx="16" cy="16" r="16" stroke="none"/>
        <circle cx="16" cy="16" r="15.5" fill="none"/>
      </g>
    </g>
    <g id="그룹_167034" data-name="그룹 167034" transform="translate(-527 -266)">
      <g id="그룹_167314" data-name="그룹 167314" transform="translate(717 931)">
        <g id="그룹_167313" data-name="그룹 167313" clip-path="url(#clip-path)">
          <path id="패스_87554" data-name="패스 87554" d="M9.75,11a1,1,0,1,0,1,1,1,1,0,0,0-1-1" fill="#fff"/>
          <path id="패스_87555" data-name="패스 87555" d="M5.25,11a1,1,0,1,0,1,1,1,1,0,0,0-1-1" fill="#fff"/>
          <path id="패스_87556" data-name="패스 87556" d="M21,8.5H3a1,1,0,0,0-1,1v5a1,1,0,0,0,1,1H21a1,1,0,0,0,1-1v-5a1,1,0,0,0-1-1M5.25,14a2,2,0,1,1,2-2,2,2,0,0,1-2,2m4.5,0a2,2,0,1,1,2-2,2,2,0,0,1-2,2m6-.5h-.5a.5.5,0,0,1,0-1h.5a.5.5,0,0,1,0,1m0-2h-.5a.5.5,0,0,1,0-1h.5a.5.5,0,0,1,0,1m2,2h-.5a.5.5,0,0,1,0-1h.5a.5.5,0,0,1,0,1m0-2h-.5a.5.5,0,0,1,0-1h.5a.5.5,0,0,1,0,1m2,2h-.5a.5.5,0,0,1,0-1h.5a.5.5,0,0,1,0,1m0-2h-.5a.5.5,0,0,1,0-1h.5a.5.5,0,0,1,0,1" fill="#fff"/>
        </g>
      </g>
    </g>
  </g>
</svg>
